<?xml version="1.0" standalone="no"?>
<!DOCTYPE svg PUBLIC "-//W3C//DTD SVG 20010904//EN"
 "http://www.w3.org/TR/2001/REC-SVG-20010904/DTD/svg10.dtd">
<svg version="1.0" xmlns="http://www.w3.org/2000/svg"
 width="700.000000pt" height="700.000000pt" viewBox="0 0 700.000000 700.000000"
 preserveAspectRatio="xMidYMid meet">
<metadata>
Created by potrace 1.11, written by Peter Selinger 2001-2013
</metadata>
<g transform="translate(0.000000,700.000000) scale(0.100000,-0.100000)"
fill="#000000" stroke="none">
<path d="M3427 6345 c-1 -2 -54 -5 -117 -9 -63 -3 -126 -8 -140 -11 -14 -2
-41 -6 -60 -9 -45 -6 -134 -20 -140 -21 -3 -1 -23 -5 -45 -9 -131 -26 -329
-86 -475 -143 -472 -187 -912 -522 -1214 -923 -31 -41 -59 -79 -64 -85 -61
-80 -304 -515 -287 -515 2 0 -7 -25 -20 -54 -74 -166 -162 -495 -180 -671 -3
-27 -7 -59 -10 -70 -8 -41 -18 -234 -17 -355 1 -151 11 -274 38 -445 22 -139
119 -495 144 -530 4 -5 13 -28 20 -50 7 -22 18 -51 26 -65 7 -14 35 -72 63
-130 67 -139 92 -184 182 -320 348 -527 874 -929 1481 -1131 218 -73 461 -120
698 -135 247 -17 469 -3 720 43 645 118 1262 486 1674 998 89 110 176 232 176
245 0 6 5 10 10 10 6 0 10 4 10 9 0 6 13 30 30 54 44 65 162 299 204 404 69
172 135 397 160 543 3 19 8 44 10 56 2 12 7 45 11 74 4 29 8 61 10 71 22 111
21 549 0 661 -3 11 -7 46 -11 77 -3 31 -8 59 -10 62 -1 3 -6 26 -9 52 -4 25
-15 81 -26 124 -11 43 -22 86 -24 96 -9 38 -56 193 -65 212 -5 11 -23 56 -41
100 -51 132 -183 395 -201 403 -5 2 -8 8 -8 13 0 15 -129 204 -201 294 -245
309 -563 572 -919 758 -260 137 -614 252 -880 287 -47 6 -96 13 -109 15 -54 9
-386 26 -394 20z m298 -449 c39 -4 81 -9 95 -11 14 -2 45 -6 70 -10 85 -13
295 -66 385 -97 268 -94 518 -231 730 -401 127 -103 316 -294 387 -392 4 -5
18 -23 32 -40 48 -61 145 -213 194 -305 243 -457 330 -936 266 -1470 -10 -88
-56 -287 -91 -395 -102 -318 -270 -618 -483 -860 -59 -67 -221 -224 -291 -281
-204 -167 -497 -327 -754 -413 -266 -88 -490 -125 -750 -125 -116 1 -324 12
-335 19 -3 2 -30 6 -60 10 -80 10 -285 61 -398 99 -340 116 -650 307 -903 558
-158 157 -225 239 -341 418 -343 531 -461 1169 -331 1794 22 108 72 280 106
366 8 19 20 50 27 69 26 67 110 231 164 321 290 475 750 846 1271 1023 111 38
283 85 335 91 18 3 104 16 140 22 14 2 63 7 110 10 47 4 86 7 87 8 6 5 273 -2
338 -8z"/>
<path d="M3427 5456 c-65 -24 -109 -70 -131 -136 -13 -39 -15 -174 -14 -953 0
-813 2 -913 16 -950 13 -33 153 -178 652 -677 683 -683 656 -660 759 -660 111
0 211 99 213 209 0 20 -6 56 -13 81 -12 40 -75 106 -601 631 l-588 587 0 43
c-2 1450 -5 1684 -22 1715 -54 99 -170 146 -271 110z"/>
</g>
</svg>
